<svg width="62" height="7" viewBox="0 0 62 7" fill="none" xmlns="http://www.w3.org/2000/svg">
<path d="M3.66657 6.27537C3.17545 6.27537 2.72191 6.15509 2.30596 5.91454C1.89502 5.66898 1.56676 5.34073 1.3212 4.92979C1.08065 4.51383 0.960377 4.0603 0.960377 3.56917C0.960377 3.07805 1.08065 2.62701 1.3212 2.21607C1.56676 1.80012 1.89502 1.47187 2.30596 1.23132C2.72191 0.985757 3.17545 0.862976 3.66657 0.862976C4.1577 0.862976 4.60873 0.985757 5.01967 1.23132C5.43562 1.47187 5.76387 1.80012 6.00442 2.21607C6.24999 2.62701 6.37277 3.07805 6.37277 3.56917C6.37277 4.0603 6.24999 4.51383 6.00442 4.92979C5.76387 5.34073 5.43562 5.66898 5.01967 5.91454C4.60873 6.15509 4.1577 6.27537 3.66657 6.27537ZM3.66657 5.8093C4.06749 5.8093 4.43583 5.70907 4.7716 5.50861C5.10737 5.30314 5.37298 5.03002 5.56843 4.68924C5.76889 4.34344 5.86912 3.97009 5.86912 3.56917C5.86912 3.16825 5.76889 2.7974 5.56843 2.45662C5.37298 2.11083 5.10737 1.83771 4.7716 1.63725C4.43583 1.43178 4.06749 1.32904 3.66657 1.32904C3.26565 1.32904 2.89481 1.43178 2.55403 1.63725C2.21826 1.83771 1.95014 2.11083 1.74968 2.45662C1.55424 2.7974 1.45651 3.16825 1.45651 3.56917C1.45651 3.97009 1.55424 4.34344 1.74968 4.68924C1.95014 5.03002 2.21826 5.30314 2.55403 5.50861C2.89481 5.70907 3.26565 5.8093 3.66657 5.8093ZM3.66657 5.01248C3.29572 5.01248 3.00005 4.89972 2.77954 4.6742C2.55904 4.44869 2.44127 4.16554 2.42623 3.82476L2.41872 3.56165L2.42623 3.29855C2.44127 2.95777 2.55904 2.67462 2.77954 2.44911C3.00005 2.22359 3.29572 2.11083 3.66657 2.11083C3.92717 2.11083 4.14767 2.15343 4.32809 2.23863C4.51351 2.32382 4.65133 2.43157 4.74153 2.56187C4.83174 2.68715 4.87935 2.81494 4.88436 2.94524C4.88436 2.99536 4.86933 3.03545 4.83926 3.06552C4.80919 3.09559 4.7691 3.11062 4.71898 3.11062H4.48595C4.44084 3.11062 4.40576 3.09809 4.38071 3.07304C4.35565 3.04798 4.3331 3.01039 4.31305 2.96028C4.26795 2.84501 4.19278 2.75731 4.08754 2.69718C3.98731 2.63704 3.84699 2.60697 3.66657 2.60697C3.42602 2.60697 3.25313 2.67713 3.14789 2.81745C3.04766 2.95276 2.99253 3.11563 2.98251 3.30607L2.97499 3.56165L2.98251 3.81724C2.99253 4.00768 3.04766 4.17305 3.14789 4.31338C3.25313 4.44869 3.42602 4.51634 3.66657 4.51634C3.84699 4.51634 3.98731 4.48627 4.08754 4.42613C4.19278 4.366 4.26795 4.2783 4.31305 4.16303C4.3331 4.11292 4.35565 4.07533 4.38071 4.05027C4.40576 4.02522 4.44084 4.01269 4.48595 4.01269H4.71898C4.7691 4.01269 4.80919 4.02772 4.83926 4.05779C4.86933 4.08786 4.88436 4.12795 4.88436 4.17807C4.87935 4.30836 4.83174 4.43866 4.74153 4.56896C4.65133 4.69425 4.51351 4.79949 4.32809 4.88468C4.14767 4.96988 3.92717 5.01248 3.66657 5.01248ZM7.31354 6.2002C7.26342 6.2002 7.22082 6.18516 7.18574 6.15509C7.15567 6.12001 7.14064 6.07741 7.14064 6.0273V5.80178C7.14064 5.68652 7.20328 5.57627 7.32857 5.47103L8.96732 3.83979C9.33817 3.52407 9.59376 3.26598 9.73408 3.06552C9.8744 2.86506 9.94456 2.65207 9.94456 2.42656C9.94456 2.13088 9.86187 1.90035 9.69649 1.73497C9.53111 1.56458 9.29056 1.47939 8.97484 1.47939C8.67415 1.47939 8.43611 1.56709 8.2607 1.74249C8.0853 1.91789 7.97756 2.15343 7.93746 2.44911C7.92744 2.50423 7.90238 2.54683 7.86229 2.5769C7.8222 2.60697 7.78211 2.622 7.74202 2.622H7.38119C7.33609 2.622 7.2985 2.60697 7.26843 2.5769C7.23836 2.54683 7.22333 2.51175 7.22333 2.47166C7.23335 2.20605 7.30351 1.95047 7.43381 1.7049C7.56912 1.45433 7.76707 1.25137 8.02767 1.09601C8.28827 0.935642 8.60399 0.855458 8.97484 0.855458C9.53612 0.855458 9.95709 1.0033 10.2377 1.29897C10.5234 1.58964 10.6662 1.96049 10.6662 2.41152C10.6662 2.72724 10.5885 3.0129 10.4332 3.26848C10.2828 3.51906 10.0448 3.78466 9.71904 4.06531L8.23815 5.56875H10.6061C10.6612 5.56875 10.7038 5.58378 10.7339 5.61385C10.7639 5.64392 10.779 5.68652 10.779 5.74165V6.0273C10.779 6.07741 10.7614 6.12001 10.7263 6.15509C10.6963 6.18516 10.6562 6.2002 10.6061 6.2002H7.31354ZM13.5377 6.27537C12.8912 6.27537 12.4176 6.08744 12.1169 5.71158C11.8212 5.3307 11.6634 4.83457 11.6433 4.22317L11.6358 3.57669L11.6433 2.90766C11.6584 2.30127 11.8162 1.81014 12.1169 1.43428C12.4226 1.05341 12.8962 0.862976 13.5377 0.862976C14.1841 0.862976 14.6577 1.05341 14.9584 1.43428C15.2641 1.81014 15.4245 2.30127 15.4395 2.90766C15.4445 3.04798 15.447 3.27099 15.447 3.57669C15.447 3.87237 15.4445 4.08786 15.4395 4.22317C15.4195 4.83457 15.2591 5.3307 14.9584 5.71158C14.6627 6.08744 14.1892 6.27537 13.5377 6.27537ZM13.5377 5.65144C13.9236 5.65144 14.2142 5.52365 14.4097 5.26806C14.6051 5.01248 14.7078 4.65165 14.7179 4.18558C14.7229 4.04025 14.7254 3.83227 14.7254 3.56165C14.7254 3.28602 14.7229 3.08055 14.7179 2.94524C14.7078 2.48419 14.6026 2.12587 14.4021 1.87028C14.2067 1.60969 13.9185 1.47939 13.5377 1.47939C13.1568 1.47939 12.8686 1.60969 12.6732 1.87028C12.4777 2.12587 12.375 2.48419 12.365 2.94524L12.3575 3.56165L12.365 4.18558C12.375 4.65165 12.4777 5.01248 12.6732 5.26806C12.8686 5.52365 13.1568 5.65144 13.5377 5.65144ZM16.4605 6.2002C16.4103 6.2002 16.3677 6.18516 16.3327 6.15509C16.3026 6.12001 16.2876 6.07741 16.2876 6.0273V5.80178C16.2876 5.68652 16.3502 5.57627 16.4755 5.47103L18.1142 3.83979C18.4851 3.52407 18.7407 3.26598 18.881 3.06552C19.0213 2.86506 19.0915 2.65207 19.0915 2.42656C19.0915 2.13088 19.0088 1.90035 18.8434 1.73497C18.678 1.56458 18.4375 1.47939 18.1218 1.47939C17.8211 1.47939 17.583 1.56709 17.4076 1.74249C17.2322 1.91789 17.1245 2.15343 17.0844 2.44911C17.0744 2.50423 17.0493 2.54683 17.0092 2.5769C16.9691 2.60697 16.929 2.622 16.8889 2.622H16.5281C16.483 2.622 16.4454 2.60697 16.4154 2.5769C16.3853 2.54683 16.3702 2.51175 16.3702 2.47166C16.3803 2.20605 16.4504 1.95047 16.5807 1.7049C16.716 1.45433 16.914 1.25137 17.1746 1.09601C17.4352 0.935642 17.7509 0.855458 18.1218 0.855458C18.683 0.855458 19.104 1.0033 19.3846 1.29897C19.6703 1.58964 19.8131 1.96049 19.8131 2.41152C19.8131 2.72724 19.7355 3.0129 19.5801 3.26848C19.4298 3.51906 19.1917 3.78466 18.866 4.06531L17.3851 5.56875H19.753C19.8081 5.56875 19.8507 5.58378 19.8808 5.61385C19.9109 5.64392 19.9259 5.68652 19.9259 5.74165V6.0273C19.9259 6.07741 19.9083 6.12001 19.8733 6.15509C19.8432 6.18516 19.8031 6.2002 19.753 6.2002H16.4605ZM22.6846 6.27537C22.0381 6.27537 21.5645 6.08744 21.2638 5.71158C20.9682 5.3307 20.8103 4.83457 20.7902 4.22317L20.7827 3.57669L20.7902 2.90766C20.8053 2.30127 20.9631 1.81014 21.2638 1.43428C21.5695 1.05341 22.0431 0.862976 22.6846 0.862976C23.3311 0.862976 23.8046 1.05341 24.1053 1.43428C24.411 1.81014 24.5714 2.30127 24.5864 2.90766C24.5915 3.04798 24.594 3.27099 24.594 3.57669C24.594 3.87237 24.5915 4.08786 24.5864 4.22317C24.5664 4.83457 24.406 5.3307 24.1053 5.71158C23.8097 6.08744 23.3361 6.27537 22.6846 6.27537ZM22.6846 5.65144C23.0705 5.65144 23.3611 5.52365 23.5566 5.26806C23.752 5.01248 23.8548 4.65165 23.8648 4.18558C23.8698 4.04025 23.8723 3.83227 23.8723 3.56165C23.8723 3.28602 23.8698 3.08055 23.8648 2.94524C23.8548 2.48419 23.7495 2.12587 23.5491 1.87028C23.3536 1.60969 23.0655 1.47939 22.6846 1.47939C22.3037 1.47939 22.0156 1.60969 21.8201 1.87028C21.6247 2.12587 21.5219 2.48419 21.5119 2.94524L21.5044 3.56165L21.5119 4.18558C21.5219 4.65165 21.6247 5.01248 21.8201 5.26806C22.0156 5.52365 22.3037 5.65144 22.6846 5.65144ZM25.893 6.2002C25.8429 6.2002 25.8028 6.18516 25.7727 6.15509C25.7427 6.12001 25.7276 6.07741 25.7276 6.0273V1.11104C25.7276 1.06093 25.7427 1.02084 25.7727 0.990768C25.8028 0.955688 25.8429 0.938148 25.893 0.938148H26.2689C26.319 0.938148 26.3591 0.955688 26.3892 0.990768C26.4192 1.02084 26.4343 1.06093 26.4343 1.11104V5.56875H28.945C29.0001 5.56875 29.0427 5.58629 29.0728 5.62137C29.1079 5.65144 29.1254 5.69153 29.1254 5.74165V6.0273C29.1254 6.07741 29.1079 6.12001 29.0728 6.15509C29.0377 6.18516 28.9951 6.2002 28.945 6.2002H25.893ZM30.9261 6.27537C30.6806 6.27537 30.4526 6.22525 30.2421 6.12502C30.0366 6.02479 29.8712 5.88948 29.7459 5.71909C29.6257 5.54369 29.5655 5.35075 29.5655 5.14027C29.5655 4.80951 29.7008 4.53889 29.9715 4.32841C30.2421 4.11793 30.6104 3.97761 31.0765 3.90745L32.2041 3.74958V3.53159C32.2041 3.0154 31.9059 2.75731 31.3095 2.75731C31.079 2.75731 30.8936 2.80492 30.7533 2.90014C30.6129 2.99035 30.5102 3.09809 30.445 3.22338C30.425 3.27349 30.4025 3.30857 30.3774 3.32862C30.3573 3.34366 30.3273 3.35117 30.2872 3.35117H29.994C29.9489 3.35117 29.9088 3.33614 29.8737 3.30607C29.8437 3.27099 29.8286 3.2309 29.8286 3.18579C29.8286 3.07053 29.8813 2.93773 29.9865 2.78738C30.0968 2.63203 30.2646 2.49922 30.4902 2.38897C30.7157 2.27371 30.9913 2.21607 31.317 2.21607C31.8783 2.21607 32.2792 2.34637 32.5198 2.60697C32.7654 2.86757 32.8881 3.19331 32.8881 3.58421V6.0273C32.8881 6.07741 32.8706 6.12001 32.8355 6.15509C32.8055 6.18516 32.7654 6.2002 32.7152 6.2002H32.3845C32.3344 6.2002 32.2943 6.18516 32.2642 6.15509C32.2341 6.12001 32.2191 6.07741 32.2191 6.0273V5.69654C32.1089 5.86192 31.9485 5.99974 31.738 6.10999C31.5275 6.22024 31.2569 6.27537 30.9261 6.27537ZM31.0765 5.72661C31.4073 5.72661 31.6779 5.61886 31.8884 5.40337C32.0988 5.18788 32.2041 4.87466 32.2041 4.46372V4.25324L31.3246 4.38103C30.9637 4.43115 30.6906 4.51634 30.5052 4.63662C30.3198 4.75689 30.227 4.90724 30.227 5.08765C30.227 5.29312 30.3097 5.45098 30.4751 5.56123C30.6455 5.67148 30.846 5.72661 31.0765 5.72661ZM35.3147 6.27537C34.9689 6.27537 34.6758 6.22024 34.4352 6.10999C34.1997 5.99472 34.0243 5.86443 33.909 5.71909C33.7938 5.57376 33.7361 5.45349 33.7361 5.35827C33.7361 5.30815 33.7537 5.27057 33.7887 5.24551C33.8238 5.21544 33.8614 5.20041 33.9015 5.20041H34.2172C34.2473 5.20041 34.2698 5.20542 34.2849 5.21544C34.3049 5.22546 34.33 5.24802 34.36 5.2831C34.4753 5.42342 34.6031 5.53367 34.7434 5.61385C34.8888 5.69404 35.0817 5.73413 35.3223 5.73413C35.5929 5.73413 35.8084 5.68401 35.9687 5.58378C36.1341 5.48355 36.2168 5.33822 36.2168 5.14779C36.2168 5.0225 36.1817 4.92227 36.1116 4.8471C36.0414 4.77193 35.9236 4.70427 35.7582 4.64413C35.5979 4.58399 35.3573 4.51885 35.0366 4.44869C34.6006 4.35347 34.2924 4.21565 34.112 4.03524C33.9316 3.85483 33.8414 3.62179 33.8414 3.33614C33.8414 3.15071 33.8965 2.97281 34.0067 2.80242C34.117 2.62701 34.2799 2.48669 34.4954 2.38145C34.7159 2.2712 34.9765 2.21607 35.2771 2.21607C35.5929 2.21607 35.861 2.26869 36.0815 2.37394C36.307 2.47918 36.4749 2.60196 36.5851 2.74228C36.7004 2.8826 36.758 3.00037 36.758 3.09559C36.758 3.14069 36.7405 3.17828 36.7054 3.20835C36.6753 3.23841 36.6378 3.25345 36.5927 3.25345H36.307C36.2368 3.25345 36.1867 3.22589 36.1567 3.17076C36.0715 3.07554 35.9988 3.00287 35.9387 2.95276C35.8835 2.89763 35.8008 2.85253 35.6906 2.81745C35.5803 2.77736 35.4425 2.75731 35.2771 2.75731C35.0316 2.75731 34.8437 2.80993 34.7134 2.91517C34.5831 3.0154 34.5179 3.15071 34.5179 3.3211C34.5179 3.42634 34.5455 3.51655 34.6006 3.59172C34.6557 3.66188 34.761 3.72954 34.9163 3.79469C35.0717 3.85483 35.3022 3.91747 35.6079 3.98262C36.084 4.08285 36.4198 4.22567 36.6152 4.4111C36.8157 4.59652 36.9159 4.83457 36.9159 5.12523C36.9159 5.34073 36.8533 5.53618 36.728 5.71158C36.6077 5.88698 36.4248 6.02479 36.1792 6.12502C35.9387 6.22525 35.6505 6.27537 35.3147 6.27537ZM37.9744 6.2002C37.9243 6.2002 37.8817 6.18516 37.8466 6.15509C37.8166 6.12001 37.8015 6.07741 37.8015 6.0273V1.03587C37.8015 0.980745 37.8166 0.938148 37.8466 0.908079C37.8817 0.87801 37.9243 0.862976 37.9744 0.862976H38.3052C38.3553 0.862976 38.3954 0.880516 38.4254 0.915596C38.4605 0.945665 38.4781 0.985757 38.4781 1.03587V6.0273C38.4781 6.07741 38.4605 6.12001 38.4254 6.15509C38.3954 6.18516 38.3553 6.2002 38.3052 6.2002H37.9744ZM41.1558 6.27537C40.6446 6.27537 40.2362 6.11751 39.9305 5.80178C39.6248 5.48105 39.4569 5.04505 39.4268 4.49379L39.4193 4.2382L39.4268 3.99014C39.4569 3.4489 39.6248 3.01791 39.9305 2.69718C40.2362 2.37644 40.6446 2.21607 41.1558 2.21607C41.707 2.21607 42.133 2.39148 42.4337 2.74228C42.7394 3.09308 42.8923 3.56917 42.8923 4.17055V4.30586C42.8923 4.35597 42.8747 4.39857 42.8396 4.43365C42.8096 4.46372 42.7695 4.47875 42.7194 4.47875H40.1109V4.54641C40.1259 4.87215 40.2262 5.15029 40.4116 5.38082C40.597 5.61135 40.8426 5.72661 41.1483 5.72661C41.3838 5.72661 41.5742 5.68151 41.7196 5.5913C41.8699 5.49608 41.9827 5.39836 42.0578 5.29813C42.103 5.23799 42.138 5.20291 42.1631 5.19289C42.1881 5.17785 42.2307 5.17034 42.2909 5.17034H42.6216C42.6667 5.17034 42.7043 5.18287 42.7344 5.20792C42.7695 5.23298 42.787 5.26556 42.787 5.30565C42.787 5.4159 42.7194 5.5487 42.5841 5.70406C42.4487 5.85942 42.2558 5.99472 42.0052 6.10999C41.7597 6.22024 41.4765 6.27537 41.1558 6.27537ZM42.2082 3.96758V3.94503C42.2082 3.59423 42.113 3.30857 41.9225 3.08807C41.7321 2.86757 41.4765 2.75731 41.1558 2.75731C40.83 2.75731 40.5745 2.86757 40.389 3.08807C40.2036 3.30857 40.1109 3.59423 40.1109 3.94503V3.96758H42.2082ZM45.1444 6.27537C44.7986 6.27537 44.5054 6.22024 44.2649 6.10999C44.0293 5.99472 43.8539 5.86443 43.7386 5.71909C43.6234 5.57376 43.5658 5.45349 43.5658 5.35827C43.5658 5.30815 43.5833 5.27057 43.6184 5.24551C43.6535 5.21544 43.691 5.20041 43.7311 5.20041H44.0469C44.0769 5.20041 44.0995 5.20542 44.1145 5.21544C44.1346 5.22546 44.1596 5.24802 44.1897 5.2831C44.3049 5.42342 44.4327 5.53367 44.5731 5.61385C44.7184 5.69404 44.9113 5.73413 45.1519 5.73413C45.4225 5.73413 45.638 5.68401 45.7984 5.58378C45.9637 5.48355 46.0464 5.33822 46.0464 5.14779C46.0464 5.0225 46.0114 4.92227 45.9412 4.8471C45.871 4.77193 45.7533 4.70427 45.5879 4.64413C45.4275 4.58399 45.187 4.51885 44.8662 4.44869C44.4302 4.35347 44.122 4.21565 43.9416 4.03524C43.7612 3.85483 43.671 3.62179 43.671 3.33614C43.671 3.15071 43.7261 2.97281 43.8364 2.80242C43.9466 2.62701 44.1095 2.48669 44.325 2.38145C44.5455 2.2712 44.8061 2.21607 45.1068 2.21607C45.4225 2.21607 45.6906 2.26869 45.9111 2.37394C46.1366 2.47918 46.3045 2.60196 46.4148 2.74228C46.53 2.8826 46.5877 3.00037 46.5877 3.09559C46.5877 3.14069 46.5701 3.17828 46.5351 3.20835C46.505 3.23841 46.4674 3.25345 46.4223 3.25345H46.1366C46.0665 3.25345 46.0164 3.22589 45.9863 3.17076C45.9011 3.07554 45.8284 3.00287 45.7683 2.95276C45.7132 2.89763 45.6305 2.85253 45.5202 2.81745C45.41 2.77736 45.2722 2.75731 45.1068 2.75731C44.8612 2.75731 44.6733 2.80993 44.543 2.91517C44.4127 3.0154 44.3475 3.15071 44.3475 3.3211C44.3475 3.42634 44.3751 3.51655 44.4302 3.59172C44.4854 3.66188 44.5906 3.72954 44.746 3.79469C44.9013 3.85483 45.1318 3.91747 45.4375 3.98262C45.9136 4.08285 46.2494 4.22567 46.4448 4.4111C46.6453 4.59652 46.7455 4.83457 46.7455 5.12523C46.7455 5.34073 46.6829 5.53618 46.5576 5.71158C46.4373 5.88698 46.2544 6.02479 46.0088 6.12502C45.7683 6.22525 45.4801 6.27537 45.1444 6.27537ZM49.1797 6.2002C49.0294 6.2002 48.9316 6.13003 48.8865 5.98971L47.2778 1.16366C47.2728 1.14863 47.2703 1.12608 47.2703 1.09601C47.2703 1.05091 47.2854 1.01332 47.3154 0.983251C47.3455 0.953182 47.3831 0.938148 47.4282 0.938148H48.0972C48.1624 0.938148 48.215 0.955688 48.2551 0.990768C48.2952 1.02585 48.3227 1.06343 48.3378 1.10353L49.5931 4.95234L50.856 1.10353C50.8661 1.06343 50.8911 1.02585 50.9312 0.990768C50.9713 0.955688 51.0239 0.938148 51.0891 0.938148H51.7656C51.8057 0.938148 51.8408 0.953182 51.8709 0.983251C51.9059 1.01332 51.9235 1.05091 51.9235 1.09601L51.9084 1.16366L50.3073 5.98971C50.2572 6.13003 50.1594 6.2002 50.0141 6.2002H49.1797ZM52.8993 6.2002C52.8491 6.2002 52.8065 6.18266 52.7715 6.14757C52.7364 6.11249 52.7188 6.0699 52.7188 6.01978V1.12608C52.7188 1.07095 52.7339 1.02585 52.7639 0.990768C52.799 0.955688 52.8441 0.938148 52.8993 0.938148H54.9139C55.5203 0.938148 55.9963 1.08097 56.3421 1.36663C56.6879 1.65228 56.8608 2.06824 56.8608 2.61449C56.8608 3.15572 56.6879 3.56667 56.3421 3.84731C55.9963 4.12294 55.5203 4.26075 54.9139 4.26075H53.8088V6.01978C53.8088 6.07491 53.7913 6.12001 53.7562 6.15509C53.7211 6.18516 53.676 6.2002 53.6209 6.2002H52.8993ZM54.8763 3.41883C55.1669 3.41883 55.3874 3.35117 55.5378 3.21586C55.6931 3.07554 55.7708 2.87258 55.7708 2.60697C55.7708 2.34637 55.6957 2.14341 55.5453 1.99807C55.4 1.85274 55.177 1.78008 54.8763 1.78008H53.7938V3.41883H54.8763ZM57.8618 6.2002C57.8117 6.2002 57.7691 6.18266 57.734 6.14757C57.6989 6.11249 57.6814 6.0699 57.6814 6.01978V1.12608C57.6814 1.07095 57.6964 1.02585 57.7265 0.990768C57.7616 0.955688 57.8067 0.938148 57.8618 0.938148H58.4481C58.5433 0.938148 58.616 0.980745 58.6661 1.06594L60.816 4.40358V1.12608C60.816 1.07095 60.8311 1.02585 60.8612 0.990768C60.8962 0.955688 60.9413 0.938148 60.9965 0.938148H61.6429C61.6981 0.938148 61.7432 0.955688 61.7783 0.990768C61.8133 1.02585 61.8309 1.07095 61.8309 1.12608V6.01227C61.8309 6.06739 61.8133 6.11249 61.7783 6.14757C61.7432 6.18266 61.7006 6.2002 61.6505 6.2002H61.0566C60.9564 6.2002 60.8812 6.1576 60.8311 6.0724L58.6887 2.80993V6.01978C58.6887 6.0699 58.6711 6.11249 58.6361 6.14757C58.606 6.18266 58.5634 6.2002 58.5083 6.2002H57.8618Z" fill="#AFB5C0"/>
</svg>
