<svg width="7" height="6" viewBox="0 0 7 6" fill="none" xmlns="http://www.w3.org/2000/svg">
<path d="M6.45887 2.09341L4.59498 1.82253L3.76178 0.133359C3.73902 0.0871101 3.70158 0.0496708 3.65533 0.0269137C3.53934 -0.0303464 3.39839 0.0173703 3.3404 0.133359L2.50719 1.82253L0.643308 2.09341C0.59192 2.10075 0.544938 2.12498 0.508967 2.16168C0.46548 2.20638 0.441517 2.26651 0.442342 2.32887C0.443168 2.39123 0.468716 2.4507 0.513371 2.49423L1.86192 3.80901L1.54332 5.66556C1.53585 5.70874 1.54063 5.75316 1.55711 5.79377C1.5736 5.83438 1.60114 5.86956 1.6366 5.89531C1.67206 5.92107 1.71403 5.93637 1.75775 5.93949C1.80147 5.94261 1.84518 5.93341 1.88394 5.91295L3.55109 5.03643L5.21824 5.91295C5.26375 5.93717 5.31661 5.94525 5.36726 5.93644C5.49499 5.91442 5.58088 5.79329 5.55886 5.66556L5.24026 3.80901L6.5888 2.49423C6.62551 2.45826 6.64973 2.41128 6.65708 2.35989C6.6769 2.23142 6.58734 2.1125 6.45887 2.09341Z" fill="#FEA250"/>
</svg>
